<?xml version="1.0" encoding="utf-8"?>
<!-- Generator: Adobe Illustrator 23.0.1, SVG Export Plug-In . SVG Version: 6.00 Build 0)  -->
<svg version="1.1" id="Layer_1" xmlns="http://www.w3.org/2000/svg" xmlns:xlink="http://www.w3.org/1999/xlink" x="0px" y="0px"
	 viewBox="0 0 610 174" style="enable-background:new 0 0 610 174;" xml:space="preserve">
<style type="text/css">
	.st0{fill:url(#XMLID_2_);}
	.st1{fill:url(#XMLID_3_);}
	.st2{fill:url(#XMLID_4_);}
	.st3{fill:url(#XMLID_5_);}
	.st4{fill:url(#XMLID_6_);}
	.st5{fill:url(#XMLID_7_);}
	.st6{fill:url(#XMLID_8_);}
	.st7{fill:url(#XMLID_9_);}
	.st8{fill:url(#XMLID_10_);}
	.st9{fill:url(#XMLID_11_);}
	.st10{fill:url(#XMLID_12_);}
	.st11{fill:url(#XMLID_13_);}
	.st12{fill:#0E1F33;}
	.st13{fill:url(#XMLID_14_);}
</style>
<g id="XMLID_324_">
	<g id="XMLID_342_">
		<g id="XMLID_344_">
			
				<linearGradient id="XMLID_2_" gradientUnits="userSpaceOnUse" x1="358.6161" y1="9.1898" x2="367.461" y2="9.891" gradientTransform="matrix(1.3333 0 0 -1.3333 -382.3331 115.3304)">
				<stop  offset="0" style="stop-color:#ED4424"/>
				<stop  offset="1" style="stop-color:#F7AD42"/>
			</linearGradient>
			<path id="XMLID_346_" class="st0" d="M119.1,128.8c-6.5-5.4-11.6-12.2-13.6-20.4c-2-7.5-2.4-17,1-24.5c-4.1-1.7-6.5-5.8-6.1-10.5
				c-1-0.7-1.7-1-1.7-1S97,76,96.3,80.4c-1.4,8.8-1.4,17.7,2,25.9c4.4,11.6,13.6,20.8,24.8,25.2l0,0
				C121.5,130.5,120.1,129.8,119.1,128.8z"/>
			
				<linearGradient id="XMLID_3_" gradientUnits="userSpaceOnUse" x1="371.1141" y1="9.2579" x2="361.3297" y2="9.5259" gradientTransform="matrix(1.3333 0 0 -1.3333 -382.3331 115.3304)">
				<stop  offset="0" style="stop-color:#CE1480"/>
				<stop  offset="0.1522" style="stop-color:#C61781"/>
				<stop  offset="0.3838" style="stop-color:#B11F86"/>
				<stop  offset="0.6661" style="stop-color:#8F2C8C"/>
				<stop  offset="0.9857" style="stop-color:#5F3E96"/>
				<stop  offset="1" style="stop-color:#5D3F96"/>
			</linearGradient>
			<path id="XMLID_345_" class="st1" d="M108.9,84.5c-0.7,0-1.7-0.3-2.4-0.7c-3.4,7.5-3.1,17-1,24.5c1,3.4,2.4,6.8,4.1,9.5
				c2,3.4,4.1,5.4,4.1,5.4s-9.5-22.5,5.8-39.1c0,0-1-0.7-2.4-1.4C114.4,84.2,111.6,84.9,108.9,84.5z"/>
		</g>
		
			<linearGradient id="XMLID_4_" gradientUnits="userSpaceOnUse" x1="364.1004" y1="30.7586" x2="375.1925" y2="30.7586" gradientTransform="matrix(1.3333 0 0 -1.3333 -382.3331 115.3304)">
			<stop  offset="0" style="stop-color:#EA4E25"/>
			<stop  offset="0.3443" style="stop-color:#E63944"/>
			<stop  offset="1" style="stop-color:#DE0C88"/>
		</linearGradient>
		<circle id="XMLID_343_" class="st2" cx="110.6" cy="74.3" r="7.5"/>
	</g>
	<g id="XMLID_338_">
		
			<linearGradient id="XMLID_5_" gradientUnits="userSpaceOnUse" x1="363.9036" y1="71.8973" x2="344.4301" y2="47.8662" gradientTransform="matrix(1.3333 0 0 -1.3333 -382.3331 115.3304)">
			<stop  offset="0.2821" style="stop-color:#F79721"/>
			<stop  offset="0.3481" style="stop-color:#F68922"/>
			<stop  offset="0.5305" style="stop-color:#F26823"/>
			<stop  offset="0.7046" style="stop-color:#F05024"/>
			<stop  offset="0.8654" style="stop-color:#EE4125"/>
			<stop  offset="1" style="stop-color:#EE3C25"/>
		</linearGradient>
		<path id="XMLID_341_" class="st3" d="M106.5,21.9c-1.4-1.7-3.4-2.4-5.8-2.4c-2.7,0-5.4,1.7-6.8,4.1L78,53.2L106.5,21.9z"/>
		
			<linearGradient id="XMLID_6_" gradientUnits="userSpaceOnUse" x1="316.2655" y1="-9.4346" x2="346.912" y2="-14.3257" gradientTransform="matrix(1.3333 0 0 -1.3333 -382.3331 115.3304)">
			<stop  offset="0.1425" style="stop-color:#F79721"/>
			<stop  offset="0.2141" style="stop-color:#E19825"/>
			<stop  offset="0.6067" style="stop-color:#6A9E3B"/>
			<stop  offset="0.8762" style="stop-color:#1EA249"/>
			<stop  offset="1" style="stop-color:#01A34E"/>
		</linearGradient>
		<path id="XMLID_340_" class="st4" d="M40.2,123.6c-0.7,2-0.3,4.1,0.7,6.1c1.4,2.4,3.7,3.7,6.8,3.7l0,0l33-1L40.2,123.6z"/>
		
			<linearGradient id="XMLID_7_" gradientUnits="userSpaceOnUse" x1="396.5444" y1="18.1144" x2="411.7499" y2="-11.2183" gradientTransform="matrix(1.3333 0 0 -1.3333 -382.3331 115.3304)">
			<stop  offset="0" style="stop-color:#EF6627"/>
			<stop  offset="9.230000e-02" style="stop-color:#EA6728"/>
			<stop  offset="0.2026" style="stop-color:#DB6B2A"/>
			<stop  offset="0.3222" style="stop-color:#C3712E"/>
			<stop  offset="0.4483" style="stop-color:#A27A34"/>
			<stop  offset="0.5797" style="stop-color:#76853B"/>
			<stop  offset="0.7153" style="stop-color:#419343"/>
			<stop  offset="0.8521" style="stop-color:#04A24E"/>
			<stop  offset="0.8575" style="stop-color:#01A34E"/>
		</linearGradient>
		<path id="XMLID_339_" class="st5" d="M166.1,118.5L148.4,90l12.6,40.1c2-0.3,4.1-2,5.1-3.7C167.8,124,167.8,120.9,166.1,118.5z"/>
	</g>
	<g id="XMLID_334_">
		
			<linearGradient id="XMLID_8_" gradientUnits="userSpaceOnUse" x1="376.8555" y1="70.1729" x2="354.2079" y2="51.192" gradientTransform="matrix(1.3333 0 0 -1.3333 -382.3331 115.3304)">
			<stop  offset="0" style="stop-color:#407ABB"/>
			<stop  offset="0.2181" style="stop-color:#3F83AE"/>
			<stop  offset="0.6178" style="stop-color:#3D9A8D"/>
			<stop  offset="1" style="stop-color:#3AB567"/>
		</linearGradient>
		<path id="XMLID_337_" class="st6" d="M123.2,25.3c-1.4-2.4-4.1-4.1-6.8-4.1c-2,0-4.4,1-5.8,2.4L88.2,48.5L123.2,25.3z"/>
		
			<linearGradient id="XMLID_9_" gradientUnits="userSpaceOnUse" x1="311.9135" y1="2.474" x2="340.9785" y2="-9.0117" gradientTransform="matrix(1.3333 0 0 -1.3333 -382.3331 115.3304)">
			<stop  offset="0" style="stop-color:#E9196A"/>
			<stop  offset="7.610000e-02" style="stop-color:#DC1E6E"/>
			<stop  offset="0.2164" style="stop-color:#BA2C7A"/>
			<stop  offset="0.4053" style="stop-color:#84428D"/>
			<stop  offset="0.6333" style="stop-color:#3961A8"/>
			<stop  offset="0.662" style="stop-color:#2F65AB"/>
			<stop  offset="1" style="stop-color:#2B89C9"/>
		</linearGradient>
		<path id="XMLID_336_" class="st7" d="M34.4,107.7c-1,2-1.4,4.1-0.7,6.1c0.7,2.7,3.1,4.8,5.8,5.1l32.3,7.1L34.4,107.7z"/>
		
			<linearGradient id="XMLID_10_" gradientUnits="userSpaceOnUse" x1="402.6727" y1="-20.0351" x2="398.224" y2="10.7016" gradientTransform="matrix(1.3333 0 0 -1.3333 -382.3331 115.3304)">
			<stop  offset="1.580000e-02" style="stop-color:#059AD6"/>
			<stop  offset="8.280000e-02" style="stop-color:#208CC1"/>
			<stop  offset="0.2379" style="stop-color:#5A6F94"/>
			<stop  offset="0.3879" style="stop-color:#8B566E"/>
			<stop  offset="0.5291" style="stop-color:#B04351"/>
			<stop  offset="0.6595" style="stop-color:#CB353C"/>
			<stop  offset="0.775" style="stop-color:#DB2D2F"/>
			<stop  offset="0.8637" style="stop-color:#E12A2B"/>
			<stop  offset="1" style="stop-color:#E82429"/>
		</linearGradient>
		<path id="XMLID_335_" class="st8" d="M157.9,133.5l-10.2-32l2.4,41.8c0,0,0,0,0.3,0c2.4,0,4.8-1,6.1-3.1
			C157.9,138.3,158.6,135.9,157.9,133.5z"/>
	</g>
	
		<linearGradient id="XMLID_11_" gradientUnits="userSpaceOnUse" x1="309.4672" y1="18.8921" x2="396.2605" y2="18.8921" gradientTransform="matrix(1.3333 0 0 -1.3333 -382.3331 115.3304)">
		<stop  offset="0.1425" style="stop-color:#F26B26"/>
		<stop  offset="0.1845" style="stop-color:#F15F31"/>
		<stop  offset="0.3197" style="stop-color:#EC3E50"/>
		<stop  offset="0.4487" style="stop-color:#E92667"/>
		<stop  offset="0.5679" style="stop-color:#E81774"/>
		<stop  offset="0.6676" style="stop-color:#E71279"/>
		<stop  offset="0.7157" style="stop-color:#E21472"/>
		<stop  offset="0.805" style="stop-color:#DC1769"/>
		<stop  offset="0.8691" style="stop-color:#D71A64"/>
		<stop  offset="1" style="stop-color:#D11E5E"/>
	</linearGradient>
	<path id="XMLID_327_" class="st9" d="M146,145.8l-6.8-111.9c-0.3-4.1-3.7-7.1-7.8-7.1c-1.4,0-3.1,0.3-4.4,1.4L33.7,89.6
		c-2.4,1.4-3.7,4.1-3.4,6.8c0,2.7,1.7,5.1,4.4,6.5l100.4,50c1,0.7,2.4,0.7,3.4,0.7c2,0,4.1-1,5.8-2.4
		C145.3,149.8,146,147.8,146,145.8z M137.2,148.1l-100-50.4c-1.4-0.7-1.7-2.7-0.3-3.7l93.6-61.6c1.4-1,3.4,0,3.4,1.7l6.8,111.9
		C140.6,147.8,138.9,148.8,137.2,148.1z"/>
	
		<linearGradient id="XMLID_12_" gradientUnits="userSpaceOnUse" x1="388.6659" y1="64.4914" x2="394.4314" y2="-26.6655" gradientTransform="matrix(1.3333 0 0 -1.3333 -382.3331 115.3304)">
		<stop  offset="0" style="stop-color:#1082B6;stop-opacity:0"/>
		<stop  offset="0.53" style="stop-color:#1082B6"/>
		<stop  offset="1" style="stop-color:#1082B6;stop-opacity:0"/>
	</linearGradient>
	<path id="XMLID_325_" class="st10" d="M146,145.8l-6.8-111.9c-0.3-3.7-3.1-6.5-6.5-7.1l0.3,6.5c0.3,0.3,0.7,0.7,0.7,1l6.5,105.5
		l1,13.9c1-0.3,2-1,3.1-2C145.3,149.8,146,147.8,146,145.8z"/>
</g>
<g id="XMLID_296_">
	
		<linearGradient id="XMLID_13_" gradientUnits="userSpaceOnUse" x1="421.9715" y1="44.0286" x2="431.1032" y2="44.0286" gradientTransform="matrix(1.3333 0 0 -1.3333 -382.3331 115.3304)">
		<stop  offset="0" style="stop-color:#ED4424"/>
		<stop  offset="1" style="stop-color:#F7AD42"/>
	</linearGradient>
	<path id="XMLID_323_" class="st11" d="M182.1,60.7c-1.4-1-1.7-2.4-1.7-4.1s0.7-3.1,1.7-4.1c1.4-1,2.7-1.7,4.4-1.7
		c1.7,0,3.1,0.7,4.1,1.7c1,1,1.7,2.4,1.7,4.1c0,1.7-0.7,3.1-1.7,4.1s-2.7,1.7-4.1,1.7C184.8,62.4,183.4,61.7,182.1,60.7z"/>
	<rect id="XMLID_322_" x="181.7" y="68.9" class="st12" width="9.9" height="33"/>
	<path id="XMLID_320_" class="st12" d="M207.9,101.9l-13.9-33h10.5l7.8,20.4l7.5-20.4h10.5l-14,33H207.9z"/>
	<path id="XMLID_317_" class="st12" d="M256.9,101.9v-3.7c-1,1.4-2.4,2.4-4.4,3.4c-2,0.7-3.7,1-5.4,1c-4.4,0-8.5-1.7-11.9-4.8
		c-3.4-3.1-5.1-7.5-5.1-12.6c0-5.1,1.7-9.2,5.1-12.6c3.4-3.1,7.5-4.8,11.9-4.8c1.7,0,3.4,0.3,5.1,1c1.7,0.7,3.4,1.7,4.4,3.4v-3.7
		h9.9v33h-9.5L256.9,101.9L256.9,101.9z M243.3,79.8c-1.7,1.4-2.4,3.4-2.4,5.8s0.7,4.1,2.4,5.8c1.7,1.4,3.7,2.4,5.8,2.4
		c2,0,4.1-0.7,5.4-2c1.7-1.4,2.4-3.4,2.4-5.8c0-2.4-0.7-4.4-2.4-5.8c-1.7-1.4-3.4-2-5.4-2C246.7,77.4,245,78.1,243.3,79.8z"/>
	<path id="XMLID_315_" class="st12" d="M283.8,84.5v17.3h-9.9v-33h9.9v4.8c1-1.7,2.4-3.1,4.1-4.1c1.7-1,3.7-1.4,5.4-1.4
		c3.7,0,6.8,1,8.8,3.4c2,2.4,3.1,5.8,3.1,10.5v19.7h-9.9V84.2c0-2-0.7-3.7-1.7-4.8s-2.4-1.7-4.1-1.7
		C285.8,77.7,283.8,79.8,283.8,84.5z"/>
	
		<linearGradient id="XMLID_14_" gradientUnits="userSpaceOnUse" x1="531.3572" y1="44.0286" x2="540.4902" y2="44.0286" gradientTransform="matrix(1.3333 0 0 -1.3333 -382.3331 115.3304)">
		<stop  offset="0" style="stop-color:#CE1480"/>
		<stop  offset="0.1522" style="stop-color:#C61781"/>
		<stop  offset="0.3838" style="stop-color:#B11F86"/>
		<stop  offset="0.6661" style="stop-color:#8F2C8C"/>
		<stop  offset="0.9857" style="stop-color:#5F3E96"/>
		<stop  offset="1" style="stop-color:#5D3F96"/>
	</linearGradient>
	<path id="XMLID_314_" class="st13" d="M328,60.7c-1.4-1-1.7-2.4-1.7-4.1s0.7-3.1,1.7-4.1c1.4-1,2.7-1.7,4.4-1.7
		c1.7,0,3.1,0.7,4.1,1.7c1,1,1.7,2.4,1.7,4.1c0,1.7-0.7,3.1-1.7,4.1c-1,1-2.7,1.7-4.1,1.7C330.7,62.4,329,61.7,328,60.7z"/>
	<rect id="XMLID_313_" x="327.3" y="68.9" class="st12" width="9.9" height="33"/>
	<path id="XMLID_311_" class="st12" d="M354.2,84.5v17.3h-9.9v-33h9.9v4.8c1-1.7,2.4-3.1,4.1-4.1c1.7-1,3.7-1.4,5.4-1.4
		c3.7,0,6.8,1,8.8,3.4c2,2.4,3.1,5.8,3.1,10.5v19.7h-9.9V84.2c0-2-0.7-3.7-1.7-4.8c-1-1-2.4-1.7-4.1-1.7
		C356.3,77.7,354.2,79.8,354.2,84.5z"/>
	<path id="XMLID_309_" class="st12" d="M404.2,50.8v9.5h-3.7c-3.4,0-5.1,2-5.1,6.5v2.4h6.8V77h-6.8v25.2h-9.9V77h-6.1v-7.8h6.1v-2.4
		c0-5.1,1.4-8.8,3.7-11.6c2.7-2.7,6.1-4.1,10.9-4.1h4.1L404.2,50.8L404.2,50.8z"/>
	<path id="XMLID_306_" class="st12" d="M433.5,97.8c-3.4,3.1-7.5,4.8-12.2,4.8c-4.8,0-8.8-1.7-12.2-4.8c-3.4-3.1-5.1-7.5-5.1-12.6
		c0-5.1,1.7-9.2,5.1-12.2c3.4-3.1,7.5-4.8,12.2-4.8c4.8,0,8.8,1.7,12.2,4.8c3.4,3.1,5.1,7.1,5.1,12.2
		C438.2,90.3,436.5,94.4,433.5,97.8z M421.2,92.7c2,0,3.7-0.7,5.4-2c1.4-1.4,2-3.1,2-5.4c0-2-0.7-4.1-2-5.4c-1.4-1.4-3.4-2-5.4-2
		s-3.7,0.7-5.4,2c-1.4,1.4-2,3.1-2,5.4c0,2.4,0.7,4.1,2,5.4C417.5,92,419.2,92.7,421.2,92.7z"/>
	<path id="XMLID_304_" class="st12" d="M455.9,68.9h6.8v7.8h-6.8v25.2h-9.9V76.7h-6.1v-7.8h6.1V56.3h9.9V68.9z"/>
	<path id="XMLID_301_" class="st12" d="M489.6,91l7.1,4.8c-3.1,4.4-8.2,6.8-15,6.8c-4.8,0-8.8-1.7-12.3-4.8
		c-3.4-3.4-5.1-7.5-5.1-12.6c0-5.1,1.7-9.2,5.1-12.2c3.4-3.1,7.5-4.8,12.3-4.8c4.8,0,8.8,1.7,11.9,4.8c3.1,3.4,4.8,7.5,4.8,12.6
		c0,1,0,2,0,3.1h-24.2c0.3,1.7,1,3.1,2.7,4.1c1.7,1,3.4,1.4,5.4,1.4C485.5,94.1,488.3,93,489.6,91z M474.3,82.5h14.3
		c-0.3-1.7-1-3.4-2.4-4.1c-1.4-0.7-2.7-1.4-4.4-1.4c-1.7,0-3.1,0.3-4.8,1.4C475.7,79.1,475,80.4,474.3,82.5z"/>
	<path id="XMLID_299_" class="st12" d="M506.6,97.8c-3.4-3.4-5.4-7.5-5.4-12.6c0-5.1,1.7-9.2,5.4-12.2c3.4-3.1,7.8-4.8,12.6-4.8
		c3.1,0,5.8,0.7,8.2,1.7c2.4,1.4,4.4,3.1,6.1,5.1l-8.2,5.8c-1.4-2.4-3.4-3.4-6.5-3.4c-2,0-4.1,0.7-5.8,2c-1.7,1.4-2.4,3.4-2.4,5.4
		c0,2.4,0.7,4.1,2.4,5.8c1.7,1.4,3.4,2.4,5.8,2.4c2.7,0,5.1-1,6.5-3.4l8.2,5.8c-1.7,2.4-3.7,4.1-6.1,5.1c-2.4,1.4-5.4,2-8.2,2
		C514.4,102.6,510.4,100.9,506.6,97.8z"/>
	<path id="XMLID_297_" class="st12" d="M548.5,84.5v17.3h-9.9v-51h9.9V74c0.7-2,1.7-3.4,3.7-4.4c2-1,3.7-1.4,5.4-1.4
		c4.4,0,7.5,1.4,9.9,4.1c2.4,2.7,3.4,6.5,3.4,11.6v18h-9.9V84.2c0-2-0.7-3.7-1.7-4.8c-1.4-1-2.7-1.7-4.1-1.7c-1.7,0-3.4,0.7-4.8,1.7
		C549.2,80.4,548.5,82.1,548.5,84.5z"/>
</g>
<g id="XMLID_245_">
	<path id="XMLID_288_" class="st12" d="M285.1,129.4h-4.4v-11.9h4.4c1.7,0,3.1,0.7,4.4,1.7c1,1,1.7,2.7,1.7,4.4s-0.7,3.4-1.7,4.4
		C288.6,128.8,287.2,129.4,285.1,129.4z M283.4,127.1h1.7c1,0,2-0.3,2.7-1c0.7-0.7,1-1.7,1-2.7c0-1.4-0.3-2-1-2.7
		c-0.7-0.7-1.7-1-2.7-1h-1.7V127.1z"/>
	<path id="XMLID_286_" class="st12" d="M300.1,129.4h-2.4v-11.9h2.4V129.4z"/>
	<path id="XMLID_284_" class="st12" d="M317.8,129.4h-2v-1.4c-0.3,0.3-0.7,1-1.4,1c-0.7,0.3-1.4,0.3-2,0.3c-1.7,0-3.1-0.7-4.4-1.7
		c-1-1-1.7-2.7-1.7-4.4c0-2,0.7-3.4,1.7-4.4c1.4-1,2.7-1.7,4.4-1.7c1.4,0,2.7,0.3,3.7,1c1,0.7,1.7,1.7,2,2.7l-2.4,0.7
		c-0.3-0.7-0.7-1-1-1.7c-0.7-0.3-1.4-0.7-2-0.7c-1,0-2,0.3-2.7,1c-0.7,0.7-1,1.7-1,3.1c0,1.4,0.3,2.4,1,3.1c0.7,0.7,1.7,1,2.7,1
		c1,0,1.7-0.3,2.4-0.7c0.7-0.3,0.7-1,1-1.7h-3.7v-2h6.1v6.5L317.8,129.4L317.8,129.4z"/>
	<path id="XMLID_282_" class="st12" d="M327,129.4h-2.4v-11.9h2.4V129.4z"/>
	<path id="XMLID_280_" class="st12" d="M342.6,119.6h-3.7v9.9h-2.4v-9.9h-3.7v-2.4h9.9V119.6L342.6,119.6z"/>
	<path id="XMLID_278_" class="st12" d="M351.1,129.4h-2.4v-11.9h2.4L351.1,129.4L351.1,129.4z"/>
	<path id="XMLID_276_" class="st12" d="M366.8,129.4h-9.5v-2.4l6.1-7.5h-6.1v-2.4h9.2v2.4l-6.5,7.5h6.5v2.4L366.8,129.4L366.8,129.4
		L366.8,129.4z"/>
	<path id="XMLID_274_" class="st12" d="M375.6,129.4h-2.4v-11.9h2.4V129.4z"/>
	<path id="XMLID_272_" class="st12" d="M393,129.4h-2.4l-5.4-8.5v8.5h-2.4v-11.9h3.1l5.1,7.8v-7.8h2.4v11.9H393z"/>
	<path id="XMLID_270_" class="st12" d="M411,129.4h-2v-1.4c-0.3,0.3-0.7,1-1.4,1c-0.7,0.3-1.4,0.3-2,0.3c-1.7,0-3.1-0.7-4.4-1.7
		c-1-1-1.7-2.7-1.7-4.4c0-2,0.7-3.4,1.7-4.4c1.4-1,2.7-1.7,4.4-1.7c1.4,0,2.7,0.3,3.7,1c1,0.7,1.7,1.7,2,2.7l-2.4,0.7
		c-0.3-0.7-0.7-1-1-1.7c-0.7-0.3-1.4-0.7-2-0.7c-1,0-2,0.3-2.7,1c-0.7,0.7-1,1.7-1,3.1c0,1.4,0.3,2.4,1,3.1c0.7,0.7,1.7,1,2.7,1
		c1,0,1.7-0.3,2.4-0.7c0.7-0.3,0.7-1,1-1.7h-3.7v-2h6.1v6.5L411,129.4L411,129.4z"/>
	<path id="XMLID_268_" class="st12" d="M428.4,129.4H426v-11.9h2.4V129.4z"/>
	<path id="XMLID_266_" class="st12" d="M445.7,129.4h-2.4l-5.4-8.5v8.5h-2.4v-11.9h3.1l5.1,7.8v-7.8h2.4v11.9H445.7z"/>
	<path id="XMLID_263_" class="st12" d="M463.1,129.4h-2.7l-5.4-8.5v8.5h-2.4v-11.9h3.1l5.1,7.8v-7.8h2.4L463.1,129.4L463.1,129.4z"
		/>
	<path id="XMLID_260_" class="st12" d="M469.2,123.3c0-2,0.7-3.4,1.7-4.4c1.4-1,2.7-1.7,4.4-1.7s3.1,0.7,4.4,1.7
		c1.4,1,1.7,2.7,1.7,4.4c0,1.7-0.7,3.4-1.7,4.4c-1.4,1-2.7,1.7-4.4,1.7s-3.1-0.7-4.4-1.7C469.9,126.7,469.2,125.4,469.2,123.3z
		 M472.9,120.2c-0.7,0.7-1,1.7-1,3.1s0.3,2.4,1,3.1c0.7,0.7,1.7,1,2.7,1c1,0,2-0.3,2.7-1c0.7-0.7,1-1.7,1-3.1s-0.3-2.4-1-3.1
		c-0.7-0.7-1.7-1-2.7-1C474.3,119.2,473.6,119.6,472.9,120.2z"/>
	<path id="XMLID_258_" class="st12" d="M492,126.4l3.1-8.8h2.4l-4.4,11.9h-2.4l-4.4-11.9h2.7L492,126.4z"/>
	<path id="XMLID_255_" class="st12" d="M510.7,129.4l-1-2.7h-5.1l-1,2.7h-2.4l4.8-11.9h2.7l4.4,11.9H510.7z M507,119.9l-1.7,4.4h3.4
		L507,119.9z"/>
	<path id="XMLID_253_" class="st12" d="M526.7,119.6H523v9.9h-2.4v-9.9h-3.7v-2.4h9.9L526.7,119.6L526.7,119.6z"/>
	<path id="XMLID_251_" class="st12" d="M534.9,129.4h-2.4v-11.9h2.4L534.9,129.4L534.9,129.4z"/>
	<path id="XMLID_248_" class="st12" d="M541.3,123.3c0-2,0.7-3.4,1.7-4.4c1.4-1,2.7-1.7,4.4-1.7c1.7,0,3.1,0.7,4.4,1.7
		c1.4,1,1.7,2.7,1.7,4.4c0,1.7-0.7,3.4-1.7,4.4c-1.4,1-2.7,1.7-4.4,1.7c-1.7,0-3.1-0.7-4.4-1.7C542,126.7,541.3,125.4,541.3,123.3z
		 M544.7,120.2c-0.7,0.7-1,1.7-1,3.1s0.3,2.4,1,3.1c0.7,0.7,1.7,1,2.7,1c1,0,2-0.3,2.7-1c0.7-0.7,1-1.7,1-3.1s-0.3-2.4-1-3.1
		c-0.7-0.7-1.7-1-2.7-1C546.4,119.2,545.7,119.6,544.7,120.2z"/>
	<path id="XMLID_246_" class="st12" d="M570.2,129.4h-2.4l-5.4-8.5v8.5H560v-11.9h3.1l5.1,7.8v-7.8h2.4v11.9H570.2z"/>
</g>
<g>
	<g>
		<path class="st12" d="M586.2,59.8l-2.6-4.5h-2.4v4.5h-2V47.3h5c1.1,0,2.1,0.4,2.8,1.2c0.8,0.8,1.2,1.7,1.2,2.8
			c0,0.8-0.2,1.5-0.7,2.2c-0.5,0.7-1.1,1.1-1.8,1.4l2.8,4.8H586.2z M581.1,49.3v4.2h2.9c0.5,0,1-0.2,1.4-0.6
			c0.4-0.4,0.6-0.9,0.6-1.5c0-0.6-0.2-1.1-0.6-1.5c-0.4-0.4-0.8-0.6-1.4-0.6H581.1z"/>
	</g>
	<g>
		<path class="st12" d="M583.1,65.8c-6.7,0-12.2-5.5-12.2-12.2s5.5-12.2,12.2-12.2s12.2,5.5,12.2,12.2S589.8,65.8,583.1,65.8z
			 M583.1,43.3c-5.7,0-10.3,4.6-10.3,10.3s4.6,10.3,10.3,10.3s10.3-4.6,10.3-10.3S588.8,43.3,583.1,43.3z"/>
	</g>
</g>
</svg>
